<?xml version="1.0" encoding="UTF-8" standalone="no"?>
<!DOCTYPE svg PUBLIC "-//W3C//DTD SVG 1.1//EN" "http://www.w3.org/Graphics/SVG/1.1/DTD/svg11.dtd">
<svg width="100%" height="100%" viewBox="0 0 516 70" version="1.1" xmlns="http://www.w3.org/2000/svg" xmlns:xlink="http://www.w3.org/1999/xlink" xml:space="preserve" xmlns:serif="http://www.serif.com/" style="fill-rule:evenodd;clip-rule:evenodd;stroke-linejoin:round;stroke-miterlimit:2;">
    <g transform="matrix(1,0,0,1,0,-1352)">
        <g id="exportable1" transform="matrix(0.853158,0,0,0.654029,585.238,467.599)">
            <rect x="-685.967" y="1352.24" width="604.054" height="107.029" style="fill:none;"/>
            <g transform="matrix(2.6444,0,0,1.99964,-1677.39,166.82)">
                <g transform="matrix(0.431807,0,0,0.179897,218.488,481.877)">
                    <g transform="matrix(1,0,0,4.1407,0,-1548.04)">
                        <rect x="366.203" y="528.843" width="10.075" height="52.052" style="fill:white;"/>
                    </g>
                    <g transform="matrix(1,0,0,4.1407,36.3159,-1548.04)">
                        <rect x="366.203" y="528.843" width="10.075" height="52.052" style="fill:white;"/>
                    </g>
                    <g transform="matrix(1,0,0,4.1407,70.9811,-1548.04)">
                        <rect x="366.203" y="528.843" width="10.075" height="52.052" style="fill:white;"/>
                    </g>
                    <g transform="matrix(1,0,0,4.1407,18.158,-1498.83)">
                        <rect x="366.203" y="528.843" width="10.075" height="52.052" style="fill:white;"/>
                    </g>
                    <g transform="matrix(1,0,0,4.1407,54.4739,-1498.83)">
                        <rect x="366.203" y="528.843" width="10.075" height="52.052" style="fill:white;"/>
                    </g>
                </g>
                <g transform="matrix(0.248997,0,0,0.429537,283.779,211.834)">
                    <text x="552.216px" y="1007.05px" style="font-family:'Nunito-Regular', 'Nunito';font-size:159.744px;fill:white;">INSONOS</text>
                </g>
            </g>
        </g>
    </g>
</svg>
